<svg width="42" height="18" viewBox="0 0 42 18" fill="none" xmlns="http://www.w3.org/2000/svg">
<path fill-rule="evenodd" clip-rule="evenodd" d="M7.67504 2.31892C7.18524 2.92703 6.39223 3.40541 5.60699 3.34054C5.50592 2.52162 5.89465 1.64595 6.34558 1.1027C6.83538 0.478379 7.69836 0.0324324 8.39808 0C8.47582 0.859459 8.15706 1.69459 7.67504 2.31892ZM8.38253 3.5027C7.69059 3.46216 7.05307 3.72162 6.54772 3.93243C6.22118 4.07027 5.9413 4.18378 5.73138 4.18378C5.49037 4.18378 5.20271 4.06216 4.87617 3.92432C4.44857 3.74594 3.95877 3.54324 3.44564 3.55135C2.27167 3.56757 1.18323 4.26487 0.584581 5.36757C-0.643809 7.58108 0.265821 10.8486 1.45534 12.6486C2.03844 13.5405 2.73815 14.5135 3.65556 14.4811C4.05984 14.4649 4.3475 14.3351 4.65071 14.2054C5.00057 14.0513 5.3582 13.8892 5.91797 13.8892C6.4622 13.8892 6.80428 14.0432 7.13859 14.1973C7.44957 14.3351 7.75278 14.473 8.20371 14.4649C9.15222 14.4486 9.75086 13.573 10.334 12.6811C10.9637 11.7243 11.2358 10.7919 11.2825 10.6541L11.2902 10.6378C11.2902 10.6378 11.2825 10.6297 11.2669 10.6297C11.057 10.5324 9.44765 9.76216 9.4321 7.7027C9.41655 5.97568 10.7071 5.1 10.9093 4.96216C10.9248 4.95405 10.9326 4.94595 10.9326 4.94595C10.1085 3.67297 8.82568 3.53514 8.38253 3.5027ZM14.9754 14.3757V1.02162H19.7723C22.2525 1.02162 23.9784 2.80541 23.9784 5.40811C23.9784 8.01081 22.2136 9.81081 19.7024 9.81081H16.9579V14.3757H14.9754ZM16.9579 2.76486H19.2437C20.9696 2.76486 21.9492 3.72162 21.9492 5.40811C21.9492 7.09459 20.9619 8.05946 19.2359 8.05946H16.9579V2.76486ZM30.5324 12.7703C30.0038 13.8162 28.8531 14.473 27.6014 14.473C25.7588 14.473 24.4682 13.3216 24.4682 11.5946C24.4682 9.88379 25.7122 8.89459 28.0212 8.74865L30.5013 8.59459V7.85676C30.5013 6.77027 29.8172 6.17838 28.6043 6.17838C27.6014 6.17838 26.8706 6.72162 26.7229 7.54054H24.9347C24.9891 5.81351 26.5518 4.54865 28.6587 4.54865C30.9289 4.54865 32.4061 5.78919 32.4061 7.71892V14.3676H30.5713V12.7622H30.5324V12.7703ZM28.1378 12.8919C27.0805 12.8919 26.4041 12.3649 26.4041 11.5459C26.4041 10.7027 27.0494 10.2162 28.2933 10.1432L30.5013 9.9973V10.7514C30.5013 12 29.4829 12.8919 28.1378 12.8919ZM38.5092 14.8946C37.7162 17.2297 36.8065 18 34.8707 18C34.7229 18 34.2331 17.9838 34.1165 17.9513V16.3459C34.2409 16.3622 34.5441 16.3784 34.6996 16.3784C35.5782 16.3784 36.068 15.9892 36.3712 14.9919L36.55 14.4L33.1836 4.67838H35.2594L37.5996 12.5676H37.6384L39.9786 4.67838H42L38.5092 14.8946Z" fill="white"/>
</svg>
