<svg width="54" height="19" viewBox="0 0 54 19" fill="none" xmlns="http://www.w3.org/2000/svg">
<path d="M22.8425 10.6064H0V18.2132H22.8425V10.6064Z" fill="white"/>
<path d="M22.8425 0.226562H0V7.84012H22.8425V0.226562Z" fill="white"/>
<path d="M45.6848 16.6667L45.5831 16.6871C45.2304 16.7549 45.1016 16.782 44.8438 16.782C44.247 16.782 43.5416 16.4769 43.5416 15.0396C43.5416 14.3006 43.6637 13.3176 44.776 13.3176H44.7828C44.9727 13.3311 45.1897 13.3515 45.5967 13.4735L45.6848 13.5006V16.6667ZM45.8679 9.50062L45.6848 9.53452V12.1921L45.522 12.1447L45.4746 12.1311C45.2915 12.0769 44.871 11.9549 44.464 11.9549C42.2395 11.9549 41.7715 13.6362 41.7715 15.0464C41.7715 16.9786 42.8566 18.0905 44.7489 18.0905C45.5492 18.0905 46.1392 18.0091 46.7361 17.8125C47.2854 17.6362 47.4821 17.3854 47.4821 16.8498V9.22266C46.9531 9.31757 46.4037 9.41249 45.8679 9.50062Z" fill="white"/>
<path d="M52.2978 16.7141L52.2028 16.7412L51.8637 16.8294C51.5449 16.9107 51.2601 16.9582 51.0431 16.9582C50.5208 16.9582 50.2089 16.7006 50.2089 16.2599C50.2089 15.9751 50.3377 15.4938 51.1923 15.4938H52.2978V16.7141ZM51.5178 11.9209C50.8328 11.9209 50.1275 12.0429 49.2526 12.3141L48.6829 12.4836L48.8728 13.7717L49.4289 13.5887C50.0122 13.3989 50.7379 13.2768 51.2804 13.2768C51.5246 13.2768 52.2706 13.2768 52.2706 14.0836V14.4362H51.233C49.3407 14.4362 48.4658 15.0395 48.4658 16.3345C48.4658 17.4395 49.2729 18.104 50.6293 18.104C51.0498 18.104 51.6331 18.0226 52.135 17.9006L52.1621 17.8938L52.1893 17.9006L52.3588 17.9277C52.8878 18.0226 53.4372 18.1175 53.973 18.2192V13.9887C53.973 12.6192 53.1455 11.9209 51.5178 11.9209Z" fill="white"/>
<path d="M39.12 16.7141L39.0251 16.7412L38.686 16.8294C38.3672 16.9107 38.0891 16.9582 37.8653 16.9582C37.3431 16.9582 37.0311 16.7006 37.0311 16.2599C37.0311 15.9751 37.16 15.4938 38.0078 15.4938H39.1133L39.12 16.7141ZM38.3469 11.9209C37.6551 11.9209 36.9565 12.0429 36.0816 12.3141L35.5119 12.4836L35.7018 13.7717L36.2579 13.5887C36.8412 13.3989 37.5669 13.2768 38.1095 13.2768C38.3536 13.2768 39.0997 13.2768 39.0997 14.0836V14.4362H38.062C36.1698 14.4362 35.2881 15.0395 35.2881 16.3345C35.2881 17.4395 36.0952 18.104 37.4584 18.104C37.8789 18.104 38.4622 18.0226 38.964 17.9006L38.9912 17.8938L39.0183 17.9006L39.1811 17.9277C39.7169 18.0226 40.2595 18.1175 40.7952 18.226V13.9955C40.802 12.6124 39.9746 11.9209 38.3469 11.9209Z" fill="white"/>
<path d="M31.9779 11.9345C31.1166 11.9345 30.4045 12.2193 30.1399 12.3413L30.0721 12.3752L30.0111 12.3277C29.6448 12.0633 29.1091 11.9277 28.363 11.9277C27.7051 11.9277 27.088 12.0226 26.4165 12.2193C25.84 12.3955 25.6162 12.6735 25.6162 13.1955V18.0294H27.4203V13.5616L27.5084 13.5345C27.8747 13.4125 28.0917 13.3921 28.302 13.3921C28.8242 13.3921 29.0887 13.6701 29.0887 14.2125V18.0362H30.8656V14.1379C30.8656 13.9074 30.8182 13.7718 30.8114 13.7447L30.7503 13.6294L30.8724 13.5752C31.1437 13.4532 31.4421 13.3921 31.7541 13.3921C32.1136 13.3921 32.5409 13.5345 32.5409 14.2125V18.0362H34.311V14.0362C34.311 12.6193 33.5514 11.9345 31.9779 11.9345Z" fill="white"/>
<path d="M50.9684 5.18927C50.7039 5.18927 50.2631 5.16216 49.9172 5.09436L49.8154 5.07402V2.46385C49.8154 2.2469 49.7747 2.11131 49.768 2.09097L49.7137 1.98249L49.829 1.93504C49.8561 1.92148 49.8833 1.9147 49.9172 1.90114L49.9375 1.88758C49.9782 1.87402 50.0189 1.86046 50.0596 1.8469C50.0799 1.84012 50.0935 1.83334 50.1071 1.83334C50.5072 1.72487 50.8735 1.73843 51.0362 1.72487H51.043C52.1485 1.72487 52.2774 2.70792 52.2774 3.4469C52.2706 4.88419 51.5585 5.18927 50.9684 5.18927ZM50.9616 0.226562C50.9481 0.226562 50.9277 0.226562 50.9141 0.226562C49.8765 0.226562 48.8117 0.511308 48.4319 1.06724C48.2284 1.33843 48.1131 1.67741 48.1063 2.07741V4.76894C48.1063 4.99944 48.0588 5.08758 48.0521 5.10792L47.991 5.22317H44.7152V3.35199H44.7084C44.6677 1.3791 43.5012 0.294359 41.8124 0.294359H41.6157H40.1643C40.0965 0.775715 40.0423 1.1147 39.9744 1.59605H41.6157C42.4771 1.59605 42.9315 2.32826 42.9315 3.45368V5.33843L42.8162 5.27741C42.7958 5.27063 42.6534 5.22317 42.4296 5.22317H39.5946C39.5404 5.58249 39.4726 6.05029 39.3979 6.51809H48.1131C48.4115 6.45707 48.7574 6.40283 49.0558 6.35538C49.4967 6.57233 50.3173 6.68758 50.8802 6.68758C52.7725 6.68758 54.0001 5.41978 54.0001 3.46724C53.9933 1.53504 52.8064 0.26724 50.9616 0.226562Z" fill="white"/>
<path d="M35.681 7.31095H35.7624C37.6546 7.31095 38.5363 6.68722 38.5363 5.14824C38.5363 4.04315 37.7292 3.1618 36.3728 3.1618H34.6298C34.1075 3.1618 33.7956 2.86349 33.7956 2.3618C33.7956 2.02282 33.9244 1.60248 34.779 1.60248H38.5906C38.672 1.10756 38.7127 0.795697 38.7873 0.300781H34.8265C32.9817 0.300781 32.0525 1.07366 32.0525 2.3618C32.0525 3.63637 32.8596 4.30078 34.2161 4.30078H35.9591C36.4813 4.30078 36.7933 4.71434 36.7933 5.14824C36.7933 5.43298 36.6644 6.02282 35.8167 6.02282H35.525L29.9433 6.00926H28.9259C28.0646 6.00926 27.461 5.52112 27.461 4.38892V3.60926C27.461 2.42959 27.9289 1.69739 28.9259 1.69739H30.5808C30.6554 1.1957 30.7029 0.877052 30.7707 0.402476H28.7089H28.5122C26.8234 0.402476 25.6569 1.53468 25.6162 3.50756V3.58214V4.38892C25.6569 6.3618 26.8234 7.30417 28.5122 7.30417H28.7089H30.1603L33.1852 7.31095H34.9892H35.681Z" fill="white"/>
</svg>
