<?xml version="1.0" encoding="UTF-8"?>
<svg id="Layer_2" data-name="Layer 2" xmlns="http://www.w3.org/2000/svg" viewBox="0 0 264.77 87.82">
  <defs>
    <style>
      .cls-1 {
        fill: #19b3e2;
      }

      .cls-1, .cls-2 {
        fill-rule: evenodd;
        stroke-width: 0px;
      }

      .cls-2 {
        fill: #b7b7b5;
      }
    </style>
  </defs>
  <g id="Layer_1-2" data-name="Layer 1">
    <g>
      <g>
        <path class="cls-1" d="m75.13,47.03h12.42c.17,0,.27.1.25.25-.04.49-.06.99-.13,1.47-.13.95-.25,1.9-.42,2.84-.38,2.16-.92,4.28-1.62,6.36-1.78,5.31-4.49,10.09-8.1,14.37-.09.1-.18.2-.28.3-.04.05-.17.04-.22,0-.16-.15-.32-.3-.47-.46-5.56-5.56-11.12-11.12-16.69-16.69-.15-.15-.31-.31-.46-.47-.08-.08-.08-.2-.02-.3.12-.18.24-.37.36-.55.95-1.46,1.68-3.01,2.18-4.67.17-.55.29-1.11.43-1.67.05-.21.11-.42.16-.64.02-.1.11-.13.18-.13.25,0,.49,0,.74,0h11.69Z"/>
        <path class="cls-1" d="m12.57,40.79H.24c-.16,0-.25-.11-.24-.26.06-.68.11-1.37.2-2.04.16-1.25.36-2.49.62-3.73.83-3.85,2.13-7.53,3.94-11.02,1.5-2.91,3.31-5.61,5.41-8.12.12-.15.25-.29.39-.42.02-.02.1-.02.14,0,.07.04.13.09.19.15.2.19.39.39.58.58,5.43,5.43,10.85,10.85,16.28,16.28.17.17.35.35.52.52.21.22.22.26.07.49-.03.05-.06.09-.09.14-1.48,2.18-2.46,4.57-2.93,7.17,0,.05-.02.11-.05.16-.03.04-.08.09-.13.09-.27.02-.55.03-.82.03h-11.76v-.02Z"/>
        <path class="cls-2" d="m54.85,43.89c.1,5.6-4.39,10.91-10.95,11.01-6.27-.08-10.98-5.04-10.97-11,0-5.99,4.79-10.97,11-10.95,6.49.03,11,5.38,10.91,10.94h.01Z"/>
        <path class="cls-1" d="m40.76,86.26v1.4c0,.05-.12.15-.17.15-.08,0-.16.01-.25,0-.6-.06-1.2-.1-1.8-.18-1.17-.16-2.33-.34-3.48-.58-2.39-.48-4.73-1.16-7.01-2.04-4.56-1.76-8.72-4.22-12.46-7.37-.15-.12-.28-.26-.42-.39-.03-.03-.03-.11,0-.15.06-.09.13-.18.2-.26.54-.54,1.08-1.09,1.63-1.63.18-.17.21-.24.48-.02.32.26.63.53.95.78,4.6,3.64,9.73,6.19,15.42,7.62,1.36.34,2.72.61,4.11.81.84.12,1.69.21,2.53.3.2.02.28.11.29.32v1.23h-.02Z"/>
        <path class="cls-1" d="m48.17.06c1,.14,2.01.25,3.01.41,2,.34,3.97.81,5.9,1.41,5.18,1.62,9.89,4.12,14.14,7.48.24.19.48.37.7.57.25.24.6.39.73.74-.16.29-.43.49-.66.72-.42.43-.85.85-1.28,1.28-.09.09-.2.1-.29.03-.21-.17-.42-.35-.64-.52-3.88-3.17-8.2-5.54-12.95-7.12-2.05-.68-4.15-1.2-6.29-1.54-.81-.13-1.62-.26-2.44-.32-.05,0-.11,0-.16-.02-1.03-.17-.89.08-.9-1.01,0-.66,0-1.31.01-1.97,0-.11.1-.21.21-.2.3.03.6.06.9.08v-.03h0Z"/>
        <path class="cls-1" d="m40.78,80.77v.66c0,.97.07.88-.91.79-.87-.08-1.74-.2-2.6-.36-2.08-.37-4.11-.89-6.11-1.59-4.33-1.52-8.27-3.74-11.8-6.67-.1-.09-.2-.19-.29-.29-.04-.04-.04-.09,0-.15.03-.04.06-.1.09-.13.6-.6,1.2-1.2,1.8-1.8.12-.12.23-.12.36-.01.24.19.47.37.71.56,4.11,3.23,8.72,5.42,13.8,6.62,1.47.35,2.95.61,4.45.73.11,0,.22.03.32.06.07.03.15.08.15.17.01.46.02.93.03,1.39h0v.02Z"/>
        <path class="cls-1" d="m47.53,5.55c.52.06,1.09.11,1.66.19,3.13.45,6.17,1.24,9.11,2.43,3.58,1.45,6.88,3.39,9.88,5.83.19.16.37.32.55.49.03.02.01.1,0,.15,0,.02-.03.05-.04.07-.64.64-1.28,1.28-1.92,1.92-.07.07-.15.06-.23.02-.07-.04-.14-.09-.2-.14-.26-.2-.51-.41-.77-.61-4.01-3.09-8.47-5.23-13.39-6.4-1.6-.38-3.22-.66-4.86-.81-.16-.01-.26-.11-.26-.25v-2.71c0-.05.12-.14.18-.14h.3v-.04Z"/>
        <path class="cls-1" d="m47.05,12.62v-1.31c0-.17.09-.24.26-.23,1.53.12,3.04.4,4.53.77,4.44,1.1,8.49,3.04,12.12,5.83.09.07.18.13.26.2.82.68.82.48.08,1.23-.46.47-.93.93-1.4,1.39-.08.08-.21.09-.3.02-.15-.11-.31-.22-.46-.34-3.49-2.67-7.37-4.49-11.66-5.45-.94-.21-1.87-.4-2.83-.49-.16-.02-.32-.06-.48-.11-.04-.01-.08-.07-.1-.12-.02-.08-.03-.16-.03-.24v-1.15h0Z"/>
        <path class="cls-1" d="m40.77,75.25v1.32c0,.11-.11.21-.21.2-.44-.05-.87-.08-1.31-.15-3.55-.53-6.94-1.56-10.15-3.18-2.02-1.01-3.91-2.22-5.68-3.62-.15-.12-.29-.25-.42-.39-.03-.03-.02-.1-.02-.14,0-.02.02-.05.04-.07.62-.62,1.24-1.25,1.86-1.87.11-.11.24-.12.36-.02.09.07.18.13.26.2.76.59,1.54,1.15,2.35,1.66,3.09,1.95,6.42,3.3,10.01,4.03.67.14,1.34.26,2.03.34.24.03.49.08.73.13.09.02.15.09.15.17v1.4h0Z"/>
        <path class="cls-1" d="m40.78,69.67v1.32c0,.15-.11.23-.28.22-.08,0-.16,0-.25-.02-.92-.14-1.84-.29-2.75-.51-3.58-.87-6.88-2.37-9.85-4.56-.28-.21-.61-.36-.78-.7.15-.3.43-.49.65-.72.44-.45.89-.89,1.35-1.33.06-.05.14-.08.22-.02.09.06.18.12.27.19.75.56,1.53,1.07,2.34,1.53,2.5,1.43,5.15,2.41,7.99,2.88.27.05.54.09.81.14.19.03.27.13.27.34v1.23h.01Z"/>
        <path class="cls-1" d="m47.04,18.11v-1.23c0-.22.1-.3.3-.27,1.3.18,2.59.42,3.86.77,3.42.94,6.54,2.49,9.36,4.63.11.08.21.18.31.27.05.05.05.17,0,.22-.52.53-1.04,1.05-1.56,1.58-.13.13-.28.26-.43.38-.03.03-.11.03-.15.01-.19-.11-.37-.23-.55-.36-1.2-.87-2.47-1.62-3.81-2.26-2.07-.98-4.22-1.66-6.48-2.02-.24-.04-.48-.1-.72-.15-.1-.02-.13-.11-.13-.18v-1.4h0Z"/>
        <path class="cls-1" d="m40.77,64.23v1.31c0,.1-.12.21-.22.19-.03,0-.05,0-.08-.01-3.43-.58-6.56-1.87-9.38-3.92-.09-.06-.17-.13-.25-.21-.03-.03-.03-.1-.03-.15,0-.02.02-.05.04-.07.64-.64,1.28-1.28,1.91-1.92.08-.08.2-.09.3-.02.14.09.27.18.41.27,2.05,1.37,4.27,2.31,6.69,2.8.08.02.16.03.24.05.31.08.36.14.37.44v1.23h-.01.01Z"/>
        <path class="cls-1" d="m47.13,22.24h.1c2.72.38,5.26,1.26,7.65,2.61.72.4,1.41.84,2.06,1.35.06.05.07.17.03.22-.02.02-.03.05-.05.06-.62.62-1.24,1.24-1.86,1.86-.11.11-.23.12-.37.03-.37-.23-.74-.48-1.11-.7-1.84-1.08-3.8-1.82-5.89-2.22-.16-.03-.32-.07-.48-.12-.08-.02-.14-.08-.16-.17,0-.03-.01-.05-.01-.08v-2.63c0-.07.05-.14.08-.21h0Z"/>
      </g>
      <g>
        <path class="cls-1" d="m256.52,54.09c.22-1.03.43-2.06.65-3.08.37-1.74.75-3.47,1.13-5.21.01-.07.02-.14,0-.21-.02-.06-.06-.13-.11-.15-.1-.04-.2-.05-.31-.05h-8.9c-.25,0-.4.12-.45.35-.15.72-.3,1.43-.46,2.15-.43,2.01-.86,4.02-1.29,6.03-.03.15-.14.25-.29.25-.35,0-.7.02-1.05.02h-2.3c-.27,0-.35-.13-.29-.41.5-2.35,1-4.7,1.51-7.05.53-2.45,1.06-4.9,1.59-7.36.37-1.74.73-3.48,1.1-5.22.03-.13.09-.26.16-.38.03-.05.1-.08.16-.12.03-.02.07-.02.1-.02h3.35c.13,0,.25.14.22.28-.1.55-.2,1.1-.31,1.64-.43,2.01-.87,4.02-1.3,6.03-.01.07-.03.14-.04.2-.02.09.07.22.15.23.14,0,.28.04.41.04h8.59c.14,0,.28-.02.41-.05.06,0,.14-.07.16-.13.08-.3.15-.61.22-.92.45-2.11.89-4.23,1.33-6.34,0-.03.01-.07.02-.1.07-.27.15-.54.22-.81.3-.16.62-.09.92-.09.94,0,1.88.02,2.82.03.09,0,.13.05.13.13v.21c-.8,3.71-1.61,7.42-2.41,11.14-.59,2.76-1.17,5.52-1.75,8.28-.04.17-.09.34-.14.5-.04.15-.15.25-.28.25h-3.35c-.1,0-.19-.06-.32-.09v.03Z"/>
        <path class="cls-1" d="m209.11,41.39c-.46,2.15-.93,4.29-1.38,6.44-.08.37-.13.76-.2,1.13,0,.03-.01.07-.01.1-.02.95.27,1.37,1.12,1.66.46.16.94.26,1.44.26,1.15,0,2.3.02,3.45,0,.48-.02.97-.12,1.44-.24.94-.25,1.59-.84,1.87-1.79.15-.5.27-1.01.38-1.52.76-3.54,1.52-7.08,2.28-10.63.17-.78.33-1.57.49-2.35.03-.14.06-.27.09-.41.09-.34.17-.41.49-.41h1.68c.52,0,1.05,0,1.57,0,.17,0,.25.1.22.27-.2.96-.39,1.91-.59,2.87-.6,2.79-1.19,5.59-1.79,8.38-.26,1.23-.54,2.45-.81,3.67-.17.75-.45,1.46-.81,2.14-.71,1.32-1.77,2.23-3.17,2.74-.66.24-1.34.38-2.03.48-2.05.28-4.11.21-6.17.14-.8-.03-1.6-.12-2.37-.35-.23-.07-.47-.14-.69-.23-1.34-.53-2.02-1.55-2.14-2.96-.05-.59-.03-1.18.1-1.77.28-1.29.53-2.59.8-3.89.52-2.45,1.06-4.9,1.58-7.36.28-1.29.56-2.59.84-3.88.04-.16.13-.25.28-.25h3.45c.14,0,.23.14.19.29-.43,2.01-.86,4.02-1.29,6.03-.1.48-.21.95-.31,1.43h0Z"/>
        <path class="cls-1" d="m231.11,54.36c-.73,0-1.47.02-2.2,0-.8-.03-1.6-.16-2.37-.4-.26-.08-.53-.19-.77-.31-1.05-.52-1.64-1.38-1.81-2.53-.1-.66-.11-1.32-.06-1.98.08-1.12.29-2.21.51-3.31.33-1.61.68-3.21,1.03-4.81.2-.89.46-1.75.81-2.59.21-.52.46-1.02.76-1.49.83-1.31,1.96-2.25,3.43-2.77.79-.28,1.61-.46,2.44-.55,1.42-.16,2.86-.21,4.29-.16.87.03,1.74.09,2.61.17.49.04.96.19,1.41.36,1.08.42,1.67,1.24,1.83,2.35.14.97.08,1.95-.08,2.92-.03.21-.09.41-.13.61-.11.64-.28.61-.77.61-1.01,0-2.02,0-3.04-.02-.08,0-.19-.13-.19-.21,0-.1,0-.21.02-.31.03-.17.08-.34.12-.51.1-.45.13-.9.1-1.35-.03-.42-.23-.73-.6-.92-.15-.08-.32-.16-.48-.19-.52-.08-1.04-.16-1.56-.18-.77-.03-1.54-.03-2.3,0-.59.03-1.19.09-1.77.2-1.02.2-1.78.77-2.24,1.72-.32.66-.53,1.36-.69,2.08-.29,1.29-.57,2.59-.84,3.88-.19.89-.35,1.78-.54,2.67-.12.59-.14,1.18-.12,1.77.03.9.52,1.39,1.24,1.62.4.13.82.22,1.23.23,1.22.03,2.44.03,3.66,0,.41,0,.83-.11,1.23-.23.7-.22,1.21-.67,1.55-1.32.24-.47.38-.97.5-1.48.05-.2.08-.41.13-.61.12-.46.14-.48.65-.48,1.05,0,2.09,0,3.14,0,.1,0,.21.11.19.2-.16,1-.36,1.99-.71,2.94-.08.23-.16.46-.26.68-.78,1.75-2.11,2.83-3.97,3.24-.58.13-1.16.22-1.76.27-1.22.09-2.44.19-3.66.17h.04Z"/>
        <path class="cls-1" d="m168.92,33.67c.13,0,.27-.04.41-.04h15.17c.1,0,.21,0,.31.02.1,0,.19.12.17.21-.11.54-.23,1.09-.34,1.63-.1.44-.19.88-.3,1.32-.01.05-.09.11-.15.12-.21.02-.42.04-.62.04h-5.02c-.23,0-.36.13-.42.38-.07.34-.15.68-.22,1.02-.69,3.2-1.38,6.4-2.06,9.6-.38,1.77-.75,3.54-1.12,5.32-.02.1-.03.21-.07.31-.19.55-.04.6-.77.59-1.01,0-2.02,0-3.03-.02-.16,0-.25-.11-.21-.27.27-1.29.55-2.59.82-3.88.45-2.11.91-4.22,1.37-6.33.4-1.84.79-3.68,1.18-5.51.07-.34.1-.68.15-1.03.01-.09-.03-.13-.12-.14-.21,0-.41-.04-.62-.04h-4.29c-.24,0-.49,0-.73-.02-.09,0-.19-.12-.17-.22.07-.41.13-.83.23-1.23.16-.61.19-1.24.46-1.84h-.01Z"/>
        <path class="cls-1" d="m136.59,36.61c-.12-1.04-.63-1.84-1.58-2.31-.47-.23-.97-.39-1.49-.47-.86-.14-1.73-.21-2.61-.21h-9.22c-.24,0-.49,0-.73.02-.15,0-.24.09-.28.26-.21.99-.43,1.98-.64,2.96-.52,2.42-1.02,4.84-1.54,7.26-.59,2.76-1.2,5.52-1.79,8.28-.11.51-.19,1.03-.28,1.54-.02.1.07.22.16.22,1.15,0,2.3,0,3.45,0,.1,0,.2-.05.24-.16.05-.13.11-.26.14-.39.23-1.09.46-2.18.69-3.27.19-.89.39-1.77.6-2.65.05-.2.16-.29.37-.29h3.04c.8,0,1.61,0,2.41,0,.31,0,.63,0,.94.04.84.09,1.49.62,1.6,1.65.04.38,0,.76-.08,1.14-.22.95-.41,1.91-.61,2.86-.06.27-.1.55-.14.82-.02.14.08.25.24.25h3.35c.12,0,.27-.12.3-.25,0-.03.03-.06.04-.1.29-1.36.6-2.72.87-4.09.12-.62.14-1.25.09-1.88-.07-.94-.58-1.55-1.44-1.87-.29-.11-.61-.16-.91-.24-.04,0-.08-.07-.11-.11,0,0,.04-.06.07-.07.27-.08.54-.15.8-.23,1.15-.35,2.07-.98,2.67-2.04.24-.43.43-.87.58-1.34.35-1.06.58-2.16.76-3.26.11-.69.12-1.39.04-2.09h0Zm-4.68,5.1c-.08.26-.21.52-.33.77-.4.81-1.05,1.28-1.94,1.43-.41.07-.83.15-1.24.15-1.85.02-3.7,0-5.55,0-.23,0-.33-.11-.31-.31.02-.14.03-.28.06-.41.06-.31.13-.61.19-.92.35-1.64.7-3.27,1.05-4.91.03-.13.09-.26.15-.39.03-.05.09-.11.15-.12.14-.03.28-.03.41-.03h5.65c.46,0,.9.05,1.34.2.51.17.83.5.89,1.05.03.24.04.49.03.73-.06.95-.28,1.86-.56,2.76h0Z"/>
        <path class="cls-1" d="m156.53,36.62c-.24-1.1-.85-1.89-1.86-2.38-.73-.35-1.51-.53-2.31-.61-1.32-.14-2.64-.23-3.97-.17-.98.04-1.95.09-2.92.19-.83.09-1.65.27-2.43.58-1.14.45-2.05,1.17-2.72,2.19-.33.5-.6,1.02-.82,1.57-.36.91-.63,1.84-.84,2.8-.33,1.53-.67,3.06-.98,4.6-.22,1.06-.45,2.11-.59,3.18-.09.66-.12,1.32-.06,1.98.04.41.12.83.25,1.22.27.79.79,1.38,1.54,1.76.66.33,1.37.51,2.09.62,1.18.18,2.36.23,3.34.21,1.36,0,2.51-.02,3.65-.18.69-.1,1.37-.23,2.04-.44,1.56-.49,2.77-1.45,3.6-2.85.25-.42.45-.86.65-1.31.37-.83.62-1.7.81-2.59.44-2.01.86-4.02,1.27-6.03.13-.65.24-1.3.33-1.96.11-.8.09-1.59-.08-2.39h0Zm-3.93,2.71c-.07.48-.11.97-.21,1.45-.4,1.8-.76,3.61-1.14,5.42-.15.72-.31,1.43-.59,2.11-.13.32-.28.64-.45.94-.47.84-1.2,1.34-2.13,1.56-.54.13-1.09.23-1.65.22h-1.26c-.52,0-1.05,0-1.57,0-.46,0-.9-.1-1.34-.23-.61-.18-1.02-.57-1.14-1.23-.07-.38-.09-.76-.04-1.14.09-.62.17-1.24.31-1.86.42-1.94.83-3.88,1.25-5.82.1-.44.25-.87.38-1.3.05-.17.12-.33.19-.49.44-1.1,1.28-1.72,2.42-1.93.65-.12,1.31-.22,1.97-.22h1.78c.56,0,1.11.09,1.66.2.27.05.53.17.77.3.38.22.62.56.7.99.07.34.12.69.08,1.04h.01Z"/>
        <path class="cls-1" d="m202.61,37.02c-.04-.42-.16-.82-.34-1.2-.33-.73-.89-1.24-1.61-1.58-.7-.34-1.45-.52-2.21-.6-.94-.1-1.88-.14-2.82-.18-1.36-.06-2.72.06-4.08.18-.73.06-1.45.23-2.15.46-1.45.48-2.57,1.38-3.33,2.71-.36.64-.65,1.31-.88,2.01-.31.96-.54,1.95-.74,2.94-.41,2.02-.84,4.03-1.24,6.04-.2,1-.24,2.01-.14,3.02.13,1.42.85,2.41,2.19,2.92.55.21,1.13.35,1.72.44,1.18.17,2.36.21,3.47.2,1.2,0,2.32-.03,3.43-.18.73-.1,1.45-.24,2.14-.47,1.52-.5,2.7-1.43,3.51-2.82.21-.36.4-.74.57-1.11.37-.79.63-1.63.82-2.48.26-1.16.52-2.31.76-3.47.27-1.3.54-2.59.79-3.9.19-.97.21-1.94.12-2.92h.02Zm-4.11,3.19c-.37,1.7-.72,3.41-1.09,5.11-.15.72-.31,1.43-.48,2.14-.14.58-.35,1.13-.64,1.65-.5.91-1.25,1.47-2.27,1.7-.51.12-1.03.2-1.55.2h-1.36c-.52,0-1.05-.02-1.57,0-.43,0-.83-.1-1.23-.21-.75-.21-1.18-.74-1.22-1.51-.03-.56-.01-1.11.11-1.67.35-1.67.68-3.34,1.04-5.01.16-.78.34-1.57.54-2.34.11-.44.26-.87.43-1.29.44-1.14,1.32-1.77,2.5-1.98.69-.12,1.38-.22,2.08-.21.49,0,.98,0,1.46,0,.6,0,1.18.09,1.77.19.2.04.4.11.59.2.6.26.92.74.99,1.37.06.56.03,1.11-.09,1.66h-.01Z"/>
        <path class="cls-1" d="m116.9,36.46c-.17-.95-.68-1.67-1.55-2.11-.5-.26-1.04-.42-1.59-.5-.86-.13-1.73-.23-2.61-.22-1.36,0-2.72,0-4.08,0h-4.61c-.24,0-.49,0-.73.02-.12,0-.18.09-.24.17-.04.06-.06.13-.07.19-.44,2.04-.87,4.09-1.31,6.13-.44,2.08-.88,4.16-1.33,6.24-.52,2.42-1.05,4.83-1.57,7.25-.02.1-.02.21-.03.31-.01.09.09.23.16.23h3.45c.17,0,.3-.13.34-.33.35-1.6.69-3.2,1.04-4.8.1-.47.23-.95.34-1.42.5-.25,1.03-.11,1.54-.11,1.75-.03,3.49-.03,5.24-.03.74,0,1.46-.1,2.18-.25,1.78-.36,3.13-1.31,3.96-2.95.25-.5.46-1.01.63-1.54.45-1.4.75-2.83.89-4.29.06-.67.05-1.32-.07-1.98h.02Zm-4.03,3.15c-.13.82-.28,1.65-.57,2.43-.05.13-.09.26-.14.39-.4,1.01-1.16,1.54-2.22,1.65-.59.06-1.18.08-1.77.1-.52.02-1.04,0-1.57,0h0c-1.01,0-2.02,0-3.03,0-.2,0-.32-.15-.29-.34l.03-.21c.2-.95.41-1.9.61-2.86.22-1.02.43-2.04.65-3.06.04-.2.11-.4.18-.6.02-.05.1-.1.15-.11.14-.02.28-.03.41-.03h5.12c.49,0,.97.03,1.44.19.65.23.99.63,1.02,1.3.01.38.02.77-.04,1.15h.02Z"/>
      </g>
    </g>
  </g>
</svg>