<?xml version="1.0" encoding="UTF-8"?>
<svg id="Layer_2" data-name="Layer 2" xmlns="http://www.w3.org/2000/svg" viewBox="0 0 252.78 46.25">
  <defs>
    <style>
      .cls-1 {
        stroke-width: 0px;
      }
    </style>
  </defs>
  <g id="Layer_1-2" data-name="Layer 1">
    <g id="Layer_2-2" data-name="Layer 2">
      <g id="Layer_1-2" data-name="Layer 1-2">
        <g>
          <path class="cls-1" d="m250.09,1.4c.84.49,1.49,1.14,1.97,1.97s.72,1.75.72,2.75-.24,1.93-.72,2.75c-.48.83-1.14,1.48-1.97,1.95-.84.47-1.75.7-2.74.7s-1.91-.24-2.74-.7c-.84-.47-1.5-1.12-1.98-1.95-.49-.83-.73-1.74-.73-2.75s.24-1.91.73-2.74c.49-.84,1.15-1.5,1.98-1.98s1.75-.73,2.74-.73,1.91.24,2.74.73Zm-.47,8.68c.68-.41,1.21-.96,1.61-1.66s.59-1.46.59-2.3-.2-1.61-.59-2.31-.93-1.26-1.61-1.67c-.68-.41-1.44-.61-2.27-.61s-1.6.2-2.28.61c-.69.41-1.23.97-1.63,1.67-.4.71-.6,1.48-.6,2.31s.2,1.6.6,2.3c.4.7.94,1.25,1.63,1.66s1.45.61,2.28.61,1.59-.2,2.27-.61Zm-.22-3.98c-.22.33-.56.57-1.03.71l1.49,2.3h-1.2l-1.38-2.14h-.94v2.14h-1.07V3.05h1.98c.82,0,1.43.18,1.84.54s.61.82.61,1.4c.02.42-.08.79-.3,1.12h0Zm-3.07.03h.84c.96,0,1.44-.37,1.44-1.12,0-.33-.1-.59-.3-.77s-.52-.27-.95-.27h-1.02v2.17h0Z"/>
          <path class="cls-1" d="m159.43,1.53l13.69,38.13c1.99,4.91,4.07,6.38,9.37,6.59h2.13c5.3-.21,7.38-1.68,9.37-6.59L207.68,1.53h-9.45l-13.8,41.29h-1.75L168.88,1.53s-9.45,0-9.45,0Z"/>
          <polygon class="cls-1" points="142.76 1.41 116.74 1.41 116.74 8.85 126.01 8.85 126.01 44.6 134.41 44.6 134.41 8.85 142.76 8.85 142.76 1.41"/>
          <rect class="cls-1" x="147.21" y="1.41" width="8.4" height="7.43"/>
          <rect class="cls-1" x="147.21" y="12.94" width="8.4" height="31.67"/>
          <path class="cls-1" d="m0,1.41v43.19h8.4V1.41h0l13.69,38.13c1.99,4.91,4.07,6.38,9.37,6.59h2.13c5.3-.21,7.38-1.68,9.37-6.59L56.65,1.41v43.19h8.4V1.41h-17.85l-13.8,41.29h-1.75L17.85,1.41H0Z"/>
          <path class="cls-1" d="m248.78,44.72l-13.69-38.13c-1.99-4.91-4.07-6.38-9.37-6.59h-2.13c-5.3.21-7.38,1.68-9.37,6.59l-13.69,38.13h9.45l13.8-41.29h1.75l13.8,41.29h9.45Z"/>
          <path class="cls-1" d="m92.61.07c-14.64,0-22.3,7.91-22.3,23.02s7.66,23.04,22.3,23.04,22.28-7.91,22.28-23.04S107.25.07,92.61.07Zm0,38.64c-9.09,0-13.85-5.36-13.85-15.61s4.76-15.59,13.85-15.59,13.83,5.36,13.83,15.59-4.74,15.61-13.83,15.61Z"/>
        </g>
      </g>
    </g>
  </g>
</svg>