<svg width="56" height="18" viewBox="0 0 56 18" fill="none" xmlns="http://www.w3.org/2000/svg">
<path d="M24.109 17.7409H19.6021L22.421 0.316406H26.9277L24.109 17.7409Z" fill="white"/>
<path d="M40.4473 0.741829C39.5583 0.389269 38.1484 0 36.4049 0C31.9542 0 28.82 2.37257 28.8008 5.76463C28.7638 8.26729 31.0448 9.65732 32.7507 10.4918C34.4944 11.3445 35.0871 11.901 35.0871 12.6611C35.0694 13.8284 33.6782 14.3665 32.3806 14.3665C30.5812 14.3665 29.6171 14.0891 28.1519 13.4396L27.5584 13.1612L26.9277 17.0727C27.9848 17.5541 29.9323 17.9813 31.9542 18C36.6832 18 39.7619 15.6641 39.7984 12.0494C39.8164 10.0658 38.612 8.54593 36.0153 7.30397C34.439 6.50671 33.4736 5.96912 33.4736 5.15338C33.4921 4.4118 34.2901 3.65223 36.0695 3.65223C37.5347 3.61503 38.6112 3.9671 39.4267 4.31941L39.8344 4.50443L40.4473 0.741829Z" fill="white"/>
<path d="M46.4373 11.568C46.8085 10.567 48.2367 6.69278 48.2367 6.69278C48.218 6.72998 48.6071 5.67329 48.8297 5.02459L49.1446 6.52599C49.1446 6.52599 49.9981 10.6968 50.1835 11.568C49.4791 11.568 47.3275 11.568 46.4373 11.568ZM52.0006 0.316406H48.5145C47.4394 0.316406 46.6227 0.631271 46.1588 1.76212L39.4644 17.7406H44.1933C44.1933 17.7406 44.9719 15.59 45.1392 15.1269C45.658 15.1269 50.2584 15.1269 50.9258 15.1269C51.0552 15.7386 51.4635 17.7406 51.4635 17.7406H55.6365L52.0006 0.316406Z" fill="white"/>
<path d="M15.8377 0.316406L11.4239 12.1982L10.9416 9.78846C10.1256 7.00789 7.56638 3.98687 4.71045 2.48473L8.75331 17.7224H13.5193L20.6034 0.316406H15.8377Z" fill="white"/>
<path d="M7.3254 0.316406H0.0741828L0 0.668473C5.6564 2.11444 9.40253 5.59987 10.9416 9.7892L9.36532 1.78109C9.1058 0.668227 8.30827 0.353116 7.3254 0.316406Z" fill="white"/>
</svg>
